<svg xmlns="http://www.w3.org/2000/svg" viewBox="0 0 1194.61 592.35"><defs><style>.cls-1{fill:#222;}.cls-2{fill:#327f4d;}</style></defs><title>logo</title><g id="Layer_2" data-name="Layer 2"><g id="Layer_1-2" data-name="Layer 1"><path class="cls-1" d="M647.15,102.76,574.53,14.19l-7.9-9.64a12.45,12.45,0,0,0-17.52-1.73l-9.64,7.91L381.35,140.38V173.2L555.27,30l72.62,88.56Z"/><path class="cls-2" d="M818.13,13.65,624.76,172.79l-57.17-69.72-7.9-9.64a12.43,12.43,0,0,0-17.51-1.73l-9.64,7.9L300.27,290.87h39.26l208.8-172,57.17,69.73,7.91,9.63A12.43,12.43,0,0,0,630.92,200L857.34,13.65Z"/><path class="cls-1" d="M901.1,290.87l0-39.16L807.07,138l-7.9-9.64a12.45,12.45,0,0,0-17.52-1.74L772,134.54l-155,127.06L544.43,173l-19.26,15.8,72.62,88.56L605.7,287a12.44,12.44,0,0,0,17.51,1.74l9.64-7.91,155-127.06Z"/><path class="cls-2" d="M58.94,486.39a53.27,53.27,0,0,1-48.87-29.74q-7.38-14.28-7.38-33A67.6,67.6,0,0,1,10,392.49a59.59,59.59,0,0,1,20.5-23.07,52.42,52.42,0,0,1,29.65-8.78,52.13,52.13,0,0,1,23.67,5.27,41,41,0,0,1,16.64,14.87l.47-16.4h26V482.65h-26l-.47-16.16Q87.52,486.4,58.94,486.39Zm6.79-24.12q15.93,0,25.9-10.89t10-28q0-17.1-10.08-27.87T65.73,384.76Q50,384.76,40,395.53T29.88,423.4q0,17.1,10,28T65.73,462.27Z"/><path class="cls-2" d="M151,364.38h27.89L204,451.73l27.65-87.35h23L283.44,452,309,364.38h27.42L296.1,482.65H271.49L242.9,398.57l-27.42,84.08H191.11Z"/><path class="cls-1" d="M416.08,486.39q-21.79,0-32.1-10.89t-10.32-34.3V387.1H348.82V364.38h24.84v-33h26.95v33h38.91V387.1H400.61v50.12q0,13.33,4.57,19.43t15.59,6.09a46.2,46.2,0,0,0,22-5.62l3,22.48a47,47,0,0,1-13.12,4.92A72.42,72.42,0,0,1,416.08,486.39Z"/><path class="cls-1" d="M470.68,364.38h25.78l.24,19.91a37.34,37.34,0,0,1,13.71-16.16,36.76,36.76,0,0,1,20.27-5.62,40.92,40.92,0,0,1,7,.7,32.57,32.57,0,0,1,6.79,1.88l-2.57,25.29a35.44,35.44,0,0,0-14.06-2.81q-14.31,0-22.27,10.42t-8,28.92v55.74H470.68Z"/><path class="cls-1" d="M615.74,486.39a53.27,53.27,0,0,1-48.86-29.74q-7.38-14.28-7.38-33a67.6,67.6,0,0,1,7.27-31.14,59.59,59.59,0,0,1,20.5-23.07,55,55,0,0,1,53.32-3.51,41,41,0,0,1,16.64,14.87l.46-16.4h26V482.65h-26l-.46-16.16Q644.33,486.4,615.74,486.39Zm6.8-24.12q15.93,0,25.9-10.89t10-28q0-17.1-10.08-27.87t-25.78-10.77q-15.7,0-25.78,10.77T586.69,423.4q0,17.1,10,28T622.54,462.27Z"/><path class="cls-1" d="M778.85,485.69q-19.22,0-33.86-7.38A54.13,54.13,0,0,1,722.14,457q-8.21-13.92-8.2-32.9,0-18,8-32.2a57.64,57.64,0,0,1,22.62-22.36q14.64-8.21,34.1-8.2a83.44,83.44,0,0,1,19.57,2.34A73.32,73.32,0,0,1,815.41,370L811.9,393a60.36,60.36,0,0,0-15.24-5.73,71.12,71.12,0,0,0-16.4-2q-17.82,0-28.48,10.42T741.12,423.4q0,18,10.78,28.22t29.53,10.18q15,0,32.81-7.49l3,22.25a69.61,69.61,0,0,1-17.58,6.67A87.65,87.65,0,0,1,778.85,485.69Z"/><path class="cls-1" d="M847.75,293h27V409.82l47.81-45.44h33.75l-56.72,52.23,65.62,66H929.54L874.7,426.44v56.21h-27Z"/><path class="cls-1" d="M1039.68,486.39q-20.16,0-35.38-7.37a54.3,54.3,0,0,1-23.67-21.67q-8.45-14.28-8.44-33.48,0-18,7.38-32.32a56.21,56.21,0,0,1,21-22.6q13.59-8.31,31.4-8.31,16.17,0,28.71,7A48.93,48.93,0,0,1,1080.23,388q7,13.35,7,31.14a70.34,70.34,0,0,1-.94,13.35H999.14q2.58,15.23,13.71,23.54t29.18,8.31a89.79,89.79,0,0,0,39.84-9.13l2.81,21.07a80.23,80.23,0,0,1-20.62,7.38A110.94,110.94,0,0,1,1039.68,486.39ZM1061,412.16q-.94-14.52-8.67-22.48t-21.33-8q-13.35,0-21.79,8t-10.31,22.48Z"/><path class="cls-1" d="M1119.36,364.38h25.78l.23,19.91a37.34,37.34,0,0,1,13.71-16.16,36.79,36.79,0,0,1,20.27-5.62,41,41,0,0,1,7,.7,32.57,32.57,0,0,1,6.79,1.88l-2.58,25.29a35.37,35.37,0,0,0-14.06-2.81q-14.3,0-22.26,10.42t-8,28.92v55.74h-27Z"/><path class="cls-1" d="M23.52,531.91H36.14L59.66,591.1H47l-5.61-15.58H17.6L11.92,591.1H0Zm14.64,34.42L29.44,542.5l-8.65,23.83Z"/><path class="cls-1" d="M68.46,531.91H91.12q15.42,0,23.95,7.75t8.53,21.77q0,14.1-8.76,21.88T90.26,591.1H68.46ZM80.3,581.52H90q21.27,0,21.26-20t-21.18-20H80.3Z"/><path class="cls-1" d="M126.25,531.91h13.16l15.81,46.26L171,531.91h12.77L161.21,591.1H148.68Z"/><path class="cls-1" d="M202.34,531.91H215l23.52,59.19H225.86l-5.61-15.58H196.42l-5.69,15.58H178.82ZM217,566.33l-8.72-23.83-8.65,23.83Z"/><path class="cls-1" d="M247.27,531.91h10.6l31,41.12V531.91h11.3V591.1h-10.6l-31-41v41h-11.3Z"/><path class="cls-1" d="M342.52,592a35.31,35.31,0,0,1-16.27-3.62,26.93,26.93,0,0,1-11.14-10.48,31,31,0,0,1-4.05-16,31.41,31.41,0,0,1,3.93-15.7,28.37,28.37,0,0,1,11.26-11,34.33,34.33,0,0,1,16.9-4.05,39.56,39.56,0,0,1,9.85,1.29,31.39,31.39,0,0,1,8.6,3.46l-1.94,10.05a36.89,36.89,0,0,0-16.36-4.21A21.47,21.47,0,0,0,333,544.06a17.57,17.57,0,0,0-7.09,6.93,21.08,21.08,0,0,0-2.57,10.59q0,9.12,5.45,14.45t14.72,5.33a35.57,35.57,0,0,0,8.65-1.16,40.35,40.35,0,0,0,8.64-3.27l1.25,10.28a35.19,35.19,0,0,1-9.11,3.5A44.24,44.24,0,0,1,342.52,592Z"/><path class="cls-1" d="M373.52,531.91h39.09v10H385v14.17h24.38v9.89H385v15.19h28.67v10H373.52Z"/><path class="cls-1" d="M425.78,531.91h22.66q15.42,0,23.95,7.75t8.53,21.77q0,14.1-8.76,21.88t-24.58,7.79h-21.8Zm11.83,49.61h9.74q21.25,0,21.26-20t-21.18-20h-9.82Z"/><path class="cls-1" d="M503.58,531.91h12.54l11.37,44.16,12.93-43.38h10.35l12.93,42.83L575,531.91h12.53L569.7,591.1H558.41l-13-42.52L532.63,591.1H521.26Z"/><path class="cls-1" d="M596.34,531.91h39.09v10H607.86v14.17h24.38v9.89H607.86v15.19h28.66v10H596.34Z"/><path class="cls-1" d="M648.59,531.91h22q9.35,0,14.37,3.93T690,547a14.27,14.27,0,0,1-2,7.4,13.45,13.45,0,0,1-5.41,5.14,13.46,13.46,0,0,1,7.63,5.22,15.29,15.29,0,0,1,2.8,9.19q0,8.32-5.41,12.73T672,591.1H648.59Zm11.3,24.22h9q4.83,0,7.24-1.87t2.42-5.76a6.49,6.49,0,0,0-2.38-5.45c-1.58-1.25-4-1.87-7.12-1.87h-9.19Zm0,25.7h11.29q4.76,0,7.32-2.22a7.85,7.85,0,0,0,2.57-6.27q0-8.1-10.51-8.1H659.89Z"/><path class="cls-1" d="M739.48,531.91H752.1l23.52,59.19H763l-5.61-15.58H733.56l-5.69,15.58H716Zm14.64,34.42L745.4,542.5l-8.65,23.83Z"/><path class="cls-1" d="M784.42,531.91H795L826,573V531.91H837.3V591.1H826.71l-31-41v41H784.42Z"/><path class="cls-1" d="M869.62,531.91h12.62l23.52,59.19H893.14l-5.61-15.58H863.7L858,591.1H846.1Zm14.64,34.42-8.72-23.83-8.65,23.83Z"/><path class="cls-1" d="M914.56,531.91h11.91v49.38h26.79v9.81h-38.7Z"/><path class="cls-1" d="M970.71,566.41,949,531.91h13.24l14.64,25.23,14.72-25.23h12.77l-21.8,34.5V591.1H970.71Z"/><path class="cls-1" d="M1028.49,541.72h-19v-9.81h49.92v9.81h-19V591.1h-11.92Z"/><path class="cls-1" d="M1069.15,531.91h11.91V591.1h-11.91Z"/><path class="cls-1" d="M1123.43,592a35.35,35.35,0,0,1-16.28-3.62A27,27,0,0,1,1096,577.86a31,31,0,0,1-4-16,31.41,31.41,0,0,1,3.93-15.7,28.41,28.41,0,0,1,11.25-11,34.35,34.35,0,0,1,16.9-4.05,39.58,39.58,0,0,1,9.86,1.29,31.39,31.39,0,0,1,8.6,3.46l-1.94,10.05a36.89,36.89,0,0,0-16.36-4.21,21.47,21.47,0,0,0-10.28,2.42,17.57,17.57,0,0,0-7.09,6.93,21.08,21.08,0,0,0-2.57,10.59q0,9.12,5.45,14.45t14.72,5.33a35.64,35.64,0,0,0,8.65-1.16,40.35,40.35,0,0,0,8.64-3.27l1.25,10.28a35.33,35.33,0,0,1-9.11,3.5A44.24,44.24,0,0,1,1123.43,592Z"/><path class="cls-1" d="M1172,592.35a47,47,0,0,1-11.14-1.37,26.92,26.92,0,0,1-8.8-3.54l1.17-10.2a31.73,31.73,0,0,0,8.72,3.81,35.17,35.17,0,0,0,9.58,1.41c3.58,0,6.35-.67,8.29-2a6.37,6.37,0,0,0,2.93-5.57,5.89,5.89,0,0,0-2.46-4.91c-1.63-1.24-4.74-2.59-9.3-4q-9.66-3-13.79-7.24t-4.13-11.14a15.63,15.63,0,0,1,2.53-8.8,16.61,16.61,0,0,1,7.36-6,27.65,27.65,0,0,1,11.3-2.15,39,39,0,0,1,9.34,1.17A32.86,32.86,0,0,1,1192,535l-1.64,9.89a33.08,33.08,0,0,0-7.59-3.16,29.7,29.7,0,0,0-8.06-1.21c-3.33,0-5.83.6-7.52,1.8a5.89,5.89,0,0,0-2.53,5.14,5.8,5.8,0,0,0,1,3.46,8.41,8.41,0,0,0,3.2,2.46,49.92,49.92,0,0,0,6.34,2.41q10.59,3.34,15,7.67a15,15,0,0,1,4.43,11.25,15.46,15.46,0,0,1-6,12.89Q1182.53,592.36,1172,592.35Z"/></g></g></svg>